<svg xmlns="http://www.w3.org/2000/svg" viewBox="0 0 1024 1024" width="1024" height="1024">
  <defs>
    <!-- Rich purple gradient background -->
    <linearGradient id="bgGrad" x1="0" y1="0" x2="1" y2="1">
      <stop offset="0%" stop-color="#4a1a8a"/>
      <stop offset="50%" stop-color="#6b2fa0"/>
      <stop offset="100%" stop-color="#8b45c6"/>
    </linearGradient>

    <!-- Petal gradient - soft pink/lavender -->
    <linearGradient id="petalGrad" x1="0" y1="0" x2="0" y2="1">
      <stop offset="0%" stop-color="#e8b4f8"/>
      <stop offset="100%" stop-color="#c084fc"/>
    </linearGradient>

    <!-- Inner petal gradient -->
    <linearGradient id="petalInner" x1="0" y1="0" x2="0" y2="1">
      <stop offset="0%" stop-color="#f0d0ff"/>
      <stop offset="100%" stop-color="#d8a8f0"/>
    </linearGradient>

    <!-- Soft glow filter -->
    <filter id="glow" x="-30%" y="-30%" width="160%" height="160%">
      <feGaussianBlur in="SourceGraphic" stdDeviation="12" result="blur"/>
      <feMerge>
        <feMergeNode in="blur"/>
        <feMergeNode in="SourceGraphic"/>
      </feMerge>
    </filter>

    <!-- Code bracket glow -->
    <filter id="codeGlow" x="-40%" y="-40%" width="180%" height="180%">
      <feGaussianBlur in="SourceGraphic" stdDeviation="6" result="blur1"/>
      <feGaussianBlur in="SourceGraphic" stdDeviation="2" result="blur2"/>
      <feMerge>
        <feMergeNode in="blur1"/>
        <feMergeNode in="blur2"/>
        <feMergeNode in="SourceGraphic"/>
      </feMerge>
    </filter>
  </defs>

  <!-- Rounded-square background -->
  <rect x="0" y="0" width="1024" height="1024" rx="225" ry="225" fill="url(#bgGrad)"/>

  <!-- Subtle sparkle dots -->
  <circle cx="180" cy="200" r="4" fill="#e8b4f8" opacity="0.5"/>
  <circle cx="840" cy="180" r="3" fill="#f0d0ff" opacity="0.4"/>
  <circle cx="160" cy="780" r="3" fill="#d8a8f0" opacity="0.4"/>
  <circle cx="860" cy="820" r="4" fill="#e8b4f8" opacity="0.3"/>
  <circle cx="300" cy="140" r="2" fill="#ffffff" opacity="0.5"/>
  <circle cx="750" cy="880" r="2" fill="#ffffff" opacity="0.4"/>

  <!-- Flower petals around center - 5 petals -->
  <g filter="url(#glow)" opacity="0.85">
    <!-- Petal 1 - top -->
    <ellipse cx="512" cy="340" rx="70" ry="120" fill="url(#petalGrad)" transform="rotate(0, 512, 512)"/>
    <!-- Petal 2 - top right -->
    <ellipse cx="512" cy="340" rx="70" ry="120" fill="url(#petalGrad)" transform="rotate(72, 512, 512)"/>
    <!-- Petal 3 - bottom right -->
    <ellipse cx="512" cy="340" rx="70" ry="120" fill="url(#petalGrad)" transform="rotate(144, 512, 512)"/>
    <!-- Petal 4 - bottom left -->
    <ellipse cx="512" cy="340" rx="70" ry="120" fill="url(#petalGrad)" transform="rotate(216, 512, 512)"/>
    <!-- Petal 5 - top left -->
    <ellipse cx="512" cy="340" rx="70" ry="120" fill="url(#petalGrad)" transform="rotate(288, 512, 512)"/>
  </g>

  <!-- Inner petal highlights -->
  <g opacity="0.5">
    <ellipse cx="512" cy="360" rx="40" ry="80" fill="url(#petalInner)" transform="rotate(0, 512, 512)"/>
    <ellipse cx="512" cy="360" rx="40" ry="80" fill="url(#petalInner)" transform="rotate(72, 512, 512)"/>
    <ellipse cx="512" cy="360" rx="40" ry="80" fill="url(#petalInner)" transform="rotate(144, 512, 512)"/>
    <ellipse cx="512" cy="360" rx="40" ry="80" fill="url(#petalInner)" transform="rotate(216, 512, 512)"/>
    <ellipse cx="512" cy="360" rx="40" ry="80" fill="url(#petalInner)" transform="rotate(288, 512, 512)"/>
  </g>

  <!-- Flower center circle -->
  <circle cx="512" cy="512" r="100" fill="#2d1065" opacity="0.9"/>
  <circle cx="512" cy="512" r="85" fill="#3b1580"/>

  <!-- Code brackets </> inside the flower center -->
  <g filter="url(#codeGlow)">
    <!-- Left bracket < -->
    <polyline
      points="478,475 448,512 478,549"
      fill="none"
      stroke="#e8b4f8"
      stroke-width="14"
      stroke-linecap="round"
      stroke-linejoin="round"
    />
    <!-- Right bracket > -->
    <polyline
      points="546,475 576,512 546,549"
      fill="none"
      stroke="#e8b4f8"
      stroke-width="14"
      stroke-linecap="round"
      stroke-linejoin="round"
    />
    <!-- Forward slash / -->
    <line
      x1="530" y1="468"
      x2="494" y2="556"
      stroke="#f0d0ff"
      stroke-width="10"
      stroke-linecap="round"
    />
  </g>

  <!-- White highlight on brackets for pop -->
  <g opacity="0.6">
    <polyline
      points="478,475 448,512 478,549"
      fill="none"
      stroke="#ffffff"
      stroke-width="6"
      stroke-linecap="round"
      stroke-linejoin="round"
    />
    <polyline
      points="546,475 576,512 546,549"
      fill="none"
      stroke="#ffffff"
      stroke-width="6"
      stroke-linecap="round"
      stroke-linejoin="round"
    />
    <line
      x1="530" y1="468"
      x2="494" y2="556"
      stroke="#ffffff"
      stroke-width="4"
      stroke-linecap="round"
    />
  </g>
</svg>
